<svg width="96" height="96" viewBox="0 0 96 96" fill="none" xmlns="http://www.w3.org/2000/svg">
<path d="M88.001 19.6055C82.3027 31.0341 78.4765 36.749 74.667 40.5586L70.8574 44.3682L76.5723 48.1777C72.7626 59.6063 61.3337 72.9389 46.0957 74.8438C35.9298 76.1142 29.5781 83.0993 27.041 95.7969H19.4287C19.499 95.3756 19.5704 94.9435 19.6436 94.502L19.6709 94.3359C23.5754 70.7502 32.0428 19.6055 88.001 19.6055ZM59.5469 30.916C57.1667 33.2963 57.1668 37.1558 59.5469 39.5361C61.9272 41.9164 65.7867 41.9163 68.167 39.5361L66.5508 37.9199C65.3605 39.11 62.3533 39.1101 61.1631 37.9199C59.9732 36.7296 59.9731 33.7224 61.1631 32.5322L59.5469 30.916ZM71.041 32.3535C70.6443 31.9568 70.0002 31.9558 69.6035 32.3525L67.4492 34.5078C67.0527 34.9045 67.0526 35.5486 67.4492 35.9453C67.8459 36.3417 68.4891 36.3417 68.8857 35.9453L71.041 33.79C71.4376 33.3934 71.4374 32.7503 71.041 32.3535ZM66.7305 28.043C66.3337 27.6465 65.6906 27.6464 65.2939 28.043L63.1387 30.1982C62.7423 30.5949 62.7423 31.2381 63.1387 31.6348C63.5353 32.0314 64.1784 32.0312 64.5752 31.6348L66.7305 29.4795C67.1272 29.0828 67.1272 28.4397 66.7305 28.043Z" fill="black"/>
</svg>
