<svg width="31" height="31" viewBox="0 0 31 31" fill="none" xmlns="http://www.w3.org/2000/svg">
<path d="M13.445 1.21723C14.1173 -0.405714 16.3587 -0.405774 17.0309 1.21723L17.9958 3.54633C19.6414 7.51913 22.7112 10.692 26.571 12.4086L29.3024 13.6235C30.8674 14.3195 30.8674 16.5964 29.3024 17.2924L26.4089 18.5795C22.646 20.2532 19.63 23.3123 17.9557 27.1547L17.0163 29.31C16.3288 30.8875 14.1472 30.8874 13.4597 29.31L12.5202 27.1547C10.8459 23.3123 7.83004 20.2532 4.06707 18.5795L1.17352 17.2924C-0.391173 16.5965 -0.391173 14.3194 1.17352 13.6235L3.90496 12.4086C7.76463 10.692 10.8346 7.51918 12.4802 3.54633L13.445 1.21723ZM13.446 12.0004C11.4036 12.788 9.99969 14.3811 9.99969 16.1586C9.99971 17.1692 10.3163 17.7926 10.905 18.3481C11.2755 18.6976 11.8614 18.9466 12.4743 18.9467C13.5788 18.9467 14.4742 18.1512 14.4743 17.1694C14.4743 16.2343 13.6616 15.4819 12.6306 15.3969C12.237 15.3645 11.8357 15.4142 11.529 15.5551C11.6779 14.8054 12.05 13.6163 13.9557 12.6997L13.446 12.0004ZM19.1598 12.0004C17.1177 12.788 15.7145 14.3813 15.7145 16.1586C15.7145 17.1692 16.0302 17.7926 16.6188 18.3481C16.9895 18.6978 17.5759 18.9467 18.1891 18.9467C19.2936 18.9467 20.189 18.1511 20.1891 17.1694C20.1891 16.2343 19.3765 15.4819 18.3454 15.3969C17.9516 15.3645 17.5497 15.4141 17.2429 15.5551C17.3918 14.8054 17.7647 13.6163 19.6706 12.6997L19.1598 12.0004Z" fill="white"/>
</svg>
