<svg width="96" height="96" viewBox="0 0 96 96" fill="none" xmlns="http://www.w3.org/2000/svg">
<path d="M88.0007 19.6065C82.3024 31.0351 78.4762 36.7492 74.6667 40.5587L70.8571 44.3683L76.572 48.1778C72.7624 59.6065 61.3335 72.94 46.0954 74.8448C35.9295 76.1153 29.5778 83.0995 27.0407 95.797H19.4284C19.4987 95.3756 19.5701 94.9437 19.6432 94.502L19.6706 94.337C23.5751 70.7513 32.0424 19.6065 88.0007 19.6065ZM21.445 13.2169C22.1174 11.5944 24.3586 11.5943 25.0309 13.2169L25.9958 15.546C27.6413 19.5189 30.7111 22.6916 34.571 24.4083L37.3024 25.6231C38.8674 26.3191 38.8673 28.596 37.3024 29.2921L34.4089 30.5792C30.6459 32.2528 27.63 35.3129 25.9557 39.1554L25.0163 41.3097C24.3289 42.8873 22.1471 42.8873 21.4597 41.3097L20.5202 39.1554C18.8459 35.3129 15.8301 32.2528 12.0671 30.5792L9.17352 29.2921C7.60883 28.5961 7.60883 26.3191 9.17352 25.6231L11.905 24.4083C15.7647 22.6916 18.8346 19.519 20.4802 15.546L21.445 13.2169ZM59.5466 30.9171C57.1666 33.2974 57.1663 37.157 59.5466 39.5372C61.9268 41.9173 65.7864 41.9171 68.1667 39.5372L66.5505 37.92C65.3603 39.1102 62.353 39.1102 61.1628 37.92C59.9731 36.7296 59.9731 33.7236 61.1628 32.5333L59.5466 30.9171ZM71.0407 32.3546C70.644 31.9579 69.9999 31.9569 69.6032 32.3536L67.4489 34.5089C67.0524 34.9055 67.0525 35.5487 67.4489 35.9454C67.8456 36.3418 68.4888 36.3419 68.8854 35.9454L71.0407 33.7901C71.437 33.3936 71.4368 32.7513 71.0407 32.3546ZM66.7302 28.044C66.3334 27.6473 65.6904 27.6473 65.2936 28.044L63.1384 30.1993C62.7423 30.5959 62.7423 31.2383 63.1384 31.6349C63.535 32.0315 64.1781 32.0314 64.5749 31.6349L66.7302 29.4806C67.1269 29.0838 67.1269 28.4408 66.7302 28.044ZM22.111 22.6651C20.0687 23.4527 18.6657 25.0468 18.6657 26.8243C18.6657 27.8348 18.9813 28.4583 19.57 29.0138C19.9406 29.3634 20.5271 29.6124 21.1403 29.6124C22.2447 29.6124 23.1401 28.8167 23.1403 27.8351C23.1403 26.8999 22.3276 26.1476 21.2966 26.0626C20.9028 26.0301 20.5009 26.0797 20.194 26.2208C20.3429 25.4711 20.7159 24.282 22.6218 23.3653L22.111 22.6651ZM27.8259 22.6651C25.7835 23.4527 24.3796 25.0468 24.3796 26.8243C24.3796 27.8348 24.6962 28.4583 25.2848 29.0138C25.6554 29.3632 26.2413 29.6123 26.8542 29.6124C27.9587 29.6124 28.854 28.8168 28.8542 27.8351C28.8542 26.8999 28.0415 26.1476 27.0104 26.0626C26.6169 26.0302 26.2156 26.0799 25.9089 26.2208C26.0578 25.4711 26.4298 24.2819 28.3356 23.3653L27.8259 22.6651Z" fill="black"/>
</svg>
