<svg width="96" height="96" viewBox="0 0 96 96" fill="none" xmlns="http://www.w3.org/2000/svg">
<rect width="96" height="96" fill="#FFF8F6"/>
<path d="M88.0004 19.6058C82.3021 31.0345 78.477 36.7494 74.6674 40.559L70.8578 44.3685L76.5717 48.1781C72.762 59.6067 61.3331 72.9394 46.0951 74.8441C35.9294 76.1147 29.5785 83.0998 27.0414 95.7972H19.4291C19.4994 95.3759 19.5708 94.9439 19.644 94.5023L19.6713 94.3363C23.5759 70.7505 32.0425 19.6059 88.0004 19.6058ZM21.4448 13.2172C22.117 11.5942 24.3583 11.5944 25.0307 13.2172L25.9955 15.5463C27.6411 19.5192 30.7109 22.6919 34.5707 24.4086L37.3022 25.6234C38.8673 26.3194 38.8673 28.5964 37.3022 29.2924L34.4086 30.5795C30.6458 32.2531 27.6297 35.3123 25.9555 39.1547L25.017 41.3099C24.3296 42.8876 22.1468 42.8876 21.4594 41.3099L20.52 39.1547C18.8457 35.3125 15.8305 32.2531 12.0678 30.5795L9.17327 29.2924C7.6089 28.5963 7.60892 26.3195 9.17327 25.6234L11.9057 24.4086C15.7654 22.6919 18.8353 19.5192 20.4809 15.5463L21.4448 13.2172ZM59.5473 30.9164C57.167 33.2967 57.167 37.1561 59.5473 39.5365C61.9276 41.9168 65.7871 41.9168 68.1674 39.5365L66.5512 37.9203C65.361 39.1105 62.3537 39.1105 61.1635 37.9203C59.9733 36.7301 59.9733 33.7228 61.1635 32.5326L59.5473 30.9164ZM71.0405 32.3539C70.6438 31.9576 70.0006 31.9565 69.6039 32.3529L67.4487 34.5082C67.0521 34.9049 67.053 35.549 67.4496 35.9457C67.8464 36.3419 68.4896 36.3421 68.8862 35.9457L71.0405 33.7904C71.4371 33.3938 71.4369 32.7506 71.0405 32.3539ZM66.7309 28.0433C66.3342 27.6468 65.6911 27.6469 65.2944 28.0433L63.1391 30.1986C62.7425 30.5953 62.7425 31.2385 63.1391 31.6351C63.5358 32.0318 64.1789 32.0317 64.5756 31.6351L66.7309 29.4799C67.1274 29.0831 67.1275 28.44 66.7309 28.0433ZM22.1117 22.6654C20.0696 23.4529 18.6657 25.0463 18.6655 26.8236C18.6655 27.8343 18.982 28.4585 19.5707 29.014C19.9413 29.3634 20.5273 29.6125 21.1401 29.6127C22.2446 29.6127 23.141 28.8162 23.141 27.8344C23.1409 26.8995 22.3281 26.147 21.2973 26.0619C20.9036 26.0294 20.5016 26.0792 20.1948 26.2201C20.3437 25.4704 20.7163 24.2821 22.6215 23.3656L22.1117 22.6654ZM27.8256 22.6654C25.7836 23.4529 24.3805 25.0464 24.3803 26.8236C24.3803 27.8343 24.6959 28.4585 25.2846 29.014C25.6552 29.3636 26.2418 29.6127 26.8549 29.6127C27.9595 29.6127 28.8549 28.8162 28.8549 27.8344C28.8547 26.8994 28.0421 26.1469 27.0112 26.0619C26.6174 26.0294 26.2155 26.079 25.9086 26.2201C26.0576 25.4704 26.4307 24.2821 28.3364 23.3656L27.8256 22.6654Z" fill="black"/>
</svg>
