<svg width="96" height="96" viewBox="0 0 96 96" fill="none" xmlns="http://www.w3.org/2000/svg">
<path d="M88.001 19.6064C82.3027 31.035 78.4765 36.7491 74.667 40.5586L70.8574 44.3682L76.5723 48.1777C72.7627 59.6064 61.3338 72.9399 46.0957 74.8447C35.9298 76.1152 29.5781 83.0994 27.041 95.7969H19.4287C19.499 95.3755 19.5704 94.9436 19.6436 94.502L19.6709 94.3369C23.5754 70.7512 32.0427 19.6064 88.001 19.6064ZM59.5469 30.917C57.167 33.2973 57.1667 37.1569 59.5469 39.5371C61.9271 41.9172 65.7867 41.917 68.167 39.5371L66.5508 37.9199C65.3606 39.1101 62.3533 39.1101 61.1631 37.9199C59.9734 36.7295 59.9734 33.7235 61.1631 32.5332L59.5469 30.917ZM71.041 32.3545C70.6443 31.9578 70.0002 31.9568 69.6035 32.3535L67.4492 34.5088C67.0527 34.9054 67.0528 35.5486 67.4492 35.9453C67.8459 36.3417 68.4891 36.3418 68.8857 35.9453L71.041 33.79C71.4373 33.3935 71.4371 32.7512 71.041 32.3545ZM66.7305 28.0439C66.3337 27.6472 65.6907 27.6472 65.2939 28.0439L63.1387 30.1992C62.7426 30.5958 62.7426 31.2382 63.1387 31.6348C63.5353 32.0314 64.1785 32.0313 64.5752 31.6348L66.7305 29.4805C67.1272 29.0838 67.1272 28.4407 66.7305 28.0439Z" fill="#FFF8F6"/>
</svg>
