<svg width="96" height="96" viewBox="0 0 96 96" fill="none" xmlns="http://www.w3.org/2000/svg">
<path d="M88.0003 19.606C82.3022 31.0343 78.4768 36.7486 74.6673 40.5581L70.8577 44.3677L76.5716 48.1772C72.7621 59.6058 61.334 72.9393 46.096 74.8442C35.9302 76.1147 29.5784 83.099 27.0413 95.7964H19.429C19.4993 95.3751 19.5708 94.9431 19.6439 94.5015L19.6712 94.3364C23.5757 70.7508 32.0423 19.6061 88.0003 19.606ZM21.4456 13.2173C22.1179 11.5942 24.3593 11.5942 25.0316 13.2173L25.9954 15.5454C27.6409 19.5183 30.7108 22.691 34.5706 24.4077L37.3031 25.6226C38.8678 26.3185 38.8676 28.5953 37.3031 29.2915L34.4085 30.5786C30.6456 32.2523 27.6306 35.3124 25.9564 39.1548L25.0169 41.3091C24.3295 42.8867 22.1467 42.8867 21.4593 41.3091L20.5208 39.1548C18.8466 35.3123 15.8307 32.2523 12.0677 30.5786L9.17318 29.2915C7.60905 28.5953 7.60883 26.3185 9.17318 25.6226L11.9056 24.4077C15.7653 22.691 18.8353 19.5184 20.4808 15.5454L21.4456 13.2173ZM59.5472 30.9165C57.1671 33.2968 57.1669 37.1563 59.5472 39.5366C61.9275 41.9167 65.787 41.9167 68.1673 39.5366L66.5511 37.9204C65.3608 39.1104 62.3537 39.1104 61.1634 37.9204C59.9733 36.7303 59.9734 33.723 61.1634 32.5327L59.5472 30.9165ZM71.0413 32.354C70.6446 31.9573 70.0006 31.9563 69.6038 32.353L67.4486 34.5083C67.0522 34.905 67.053 35.5482 67.4495 35.9448C67.8462 36.3412 68.4894 36.3413 68.8861 35.9448L71.0413 33.7895C71.4374 33.393 71.4373 32.7506 71.0413 32.354ZM66.7308 28.0435C66.3341 27.6467 65.691 27.6467 65.2943 28.0435L63.139 30.1987C62.7426 30.5955 62.7424 31.2386 63.139 31.6352C63.5356 32.0317 64.1788 32.0316 64.5755 31.6352L66.7308 29.48C67.1275 29.0833 67.1274 28.4402 66.7308 28.0435ZM22.1117 22.6655C20.0694 23.4531 18.6654 25.0463 18.6654 26.8237C18.6654 27.8343 18.9819 28.4577 19.5706 29.0132C19.9412 29.3628 20.5278 29.6118 21.141 29.6118C22.2453 29.6116 23.1408 28.8161 23.141 27.8345C23.141 26.8995 22.3281 26.1471 21.2972 26.062C20.9034 26.0296 20.5015 26.0792 20.1947 26.2202C20.3435 25.4705 20.7158 24.2814 22.6214 23.3647L22.1117 22.6655ZM27.8255 22.6655C25.7835 23.4531 24.3802 25.0464 24.3802 26.8237C24.3802 27.8342 24.6959 28.4577 25.2845 29.0132C25.6551 29.3628 26.2416 29.6118 26.8548 29.6118C27.9593 29.6118 28.8547 28.8162 28.8548 27.8345C28.8548 26.8993 28.0422 26.147 27.0111 26.062C26.6173 26.0296 26.2154 26.0792 25.9085 26.2202C26.0574 25.4705 26.4304 24.2814 28.3363 23.3647L27.8255 22.6655Z" fill="#FFF8F6"/>
</svg>
