<svg width="31" height="31" viewBox="0 0 31 31" fill="none" xmlns="http://www.w3.org/2000/svg">
<path d="M13.4447 1.21728C14.1169 -0.40576 16.3594 -0.40576 17.0316 1.21728L17.9955 3.5454C19.641 7.51832 22.7109 10.691 26.5707 12.4077L29.3031 13.6226C30.8678 14.3186 30.8676 16.5953 29.3031 17.2915L26.4086 18.5786C22.6457 20.2523 19.6306 23.3124 17.9564 27.1548L17.017 29.3091C16.3295 30.8867 14.1468 30.8867 13.4593 29.3091L12.5199 27.1548C10.8456 23.3124 7.83068 20.2523 4.06774 18.5786L1.17321 17.2915C-0.390963 16.5953 -0.391178 14.3185 1.17321 13.6226L3.90563 12.4077C7.76536 10.691 10.8353 7.51837 12.4808 3.5454L13.4447 1.21728ZM13.4457 11.9995C11.4037 12.787 10.0006 14.3805 10.0004 16.1577C10.0004 17.1684 10.3159 17.7926 10.9047 18.3481C11.2753 18.6978 11.8618 18.9468 12.475 18.9468C13.5795 18.9468 14.475 18.1503 14.475 17.1685C14.4748 16.2335 13.6622 15.481 12.6312 15.396C12.2375 15.3636 11.8355 15.4132 11.5287 15.5542C11.6776 14.8045 12.0508 13.6162 13.9564 12.6997L13.4457 11.9995ZM19.1605 11.9995C17.1183 12.787 15.7144 14.3804 15.7142 16.1577C15.7142 17.1684 16.0308 17.7926 16.6195 18.3481C16.9902 18.6976 17.5768 18.9468 18.1898 18.9468C19.2942 18.9466 20.1898 18.1502 20.1898 17.1685C20.1896 16.2336 19.3769 15.4811 18.3461 15.396C17.9524 15.3635 17.5503 15.4132 17.2435 15.5542C17.3925 14.8045 17.765 13.6161 19.6703 12.6997L19.1605 11.9995Z" fill="black"/>
</svg>
