<svg xmlns="http://www.w3.org/2000/svg" version="1.1" xmlns:xlink="http://www.w3.org/1999/xlink" width="1000" height="1000"><style>
    #light-icon {
      display: inline;
    }
    #dark-icon {
      display: none;
    }

    @media (prefers-color-scheme: dark) {
      #light-icon {
        display: none;
      }
      #dark-icon {
        display: inline;
      }
    }
  </style><g id="light-icon"><svg xmlns="http://www.w3.org/2000/svg" version="1.1" xmlns:xlink="http://www.w3.org/1999/xlink" width="1000" height="1000"><g><g transform="matrix(10.416666666666666,0,0,10.416666666666666,0,0)"><svg xmlns="http://www.w3.org/2000/svg" version="1.1" xmlns:xlink="http://www.w3.org/1999/xlink" width="96" height="96"><svg width="96" height="96" viewBox="0 0 96 96" fill="none" xmlns="http://www.w3.org/2000/svg">
<rect width="96" height="96" fill="#FFF8F6"></rect>
<path d="M88.0004 19.6058C82.3021 31.0345 78.477 36.7494 74.6674 40.559L70.8578 44.3685L76.5717 48.1781C72.762 59.6067 61.3331 72.9394 46.0951 74.8441C35.9294 76.1147 29.5785 83.0998 27.0414 95.7972H19.4291C19.4994 95.3759 19.5708 94.9439 19.644 94.5023L19.6713 94.3363C23.5759 70.7505 32.0425 19.6059 88.0004 19.6058ZM21.4448 13.2172C22.117 11.5942 24.3583 11.5944 25.0307 13.2172L25.9955 15.5463C27.6411 19.5192 30.7109 22.6919 34.5707 24.4086L37.3022 25.6234C38.8673 26.3194 38.8673 28.5964 37.3022 29.2924L34.4086 30.5795C30.6458 32.2531 27.6297 35.3123 25.9555 39.1547L25.017 41.3099C24.3296 42.8876 22.1468 42.8876 21.4594 41.3099L20.52 39.1547C18.8457 35.3125 15.8305 32.2531 12.0678 30.5795L9.17327 29.2924C7.6089 28.5963 7.60892 26.3195 9.17327 25.6234L11.9057 24.4086C15.7654 22.6919 18.8353 19.5192 20.4809 15.5463L21.4448 13.2172ZM59.5473 30.9164C57.167 33.2967 57.167 37.1561 59.5473 39.5365C61.9276 41.9168 65.7871 41.9168 68.1674 39.5365L66.5512 37.9203C65.361 39.1105 62.3537 39.1105 61.1635 37.9203C59.9733 36.7301 59.9733 33.7228 61.1635 32.5326L59.5473 30.9164ZM71.0405 32.3539C70.6438 31.9576 70.0006 31.9565 69.6039 32.3529L67.4487 34.5082C67.0521 34.9049 67.053 35.549 67.4496 35.9457C67.8464 36.3419 68.4896 36.3421 68.8862 35.9457L71.0405 33.7904C71.4371 33.3938 71.4369 32.7506 71.0405 32.3539ZM66.7309 28.0433C66.3342 27.6468 65.6911 27.6469 65.2944 28.0433L63.1391 30.1986C62.7425 30.5953 62.7425 31.2385 63.1391 31.6351C63.5358 32.0318 64.1789 32.0317 64.5756 31.6351L66.7309 29.4799C67.1274 29.0831 67.1275 28.44 66.7309 28.0433ZM22.1117 22.6654C20.0696 23.4529 18.6657 25.0463 18.6655 26.8236C18.6655 27.8343 18.982 28.4585 19.5707 29.014C19.9413 29.3634 20.5273 29.6125 21.1401 29.6127C22.2446 29.6127 23.141 28.8162 23.141 27.8344C23.1409 26.8995 22.3281 26.147 21.2973 26.0619C20.9036 26.0294 20.5016 26.0792 20.1948 26.2201C20.3437 25.4704 20.7163 24.2821 22.6215 23.3656L22.1117 22.6654ZM27.8256 22.6654C25.7836 23.4529 24.3805 25.0464 24.3803 26.8236C24.3803 27.8343 24.6959 28.4585 25.2846 29.014C25.6552 29.3636 26.2418 29.6127 26.8549 29.6127C27.9595 29.6127 28.8549 28.8162 28.8549 27.8344C28.8547 26.8994 28.0421 26.1469 27.0112 26.0619C26.6174 26.0294 26.2155 26.079 25.9086 26.2201C26.0576 25.4704 26.4307 24.2821 28.3364 23.3656L27.8256 22.6654Z" fill="black"></path>
</svg></svg></g></g></svg></g><g id="dark-icon"><svg xmlns="http://www.w3.org/2000/svg" version="1.1" xmlns:xlink="http://www.w3.org/1999/xlink" width="1000" height="1000"><g><g transform="matrix(10.416666666666666,0,0,10.416666666666666,0,0)"><svg xmlns="http://www.w3.org/2000/svg" version="1.1" xmlns:xlink="http://www.w3.org/1999/xlink" width="96" height="96"><svg width="96" height="96" viewBox="0 0 96 96" fill="none" xmlns="http://www.w3.org/2000/svg">
<rect width="96" height="96" fill="black"></rect>
<path d="M88.0007 19.6065C82.3024 31.0351 78.4762 36.7492 74.6667 40.5587L70.8571 44.3683L76.572 48.1778C72.7624 59.6065 61.3335 72.94 46.0954 74.8448C35.9295 76.1153 29.5778 83.0995 27.0407 95.797H19.4284C19.4987 95.3756 19.5701 94.9437 19.6432 94.502L19.6706 94.337C23.5751 70.7513 32.0424 19.6065 88.0007 19.6065ZM21.445 13.2169C22.1174 11.5944 24.3586 11.5943 25.0309 13.2169L25.9958 15.546C27.6413 19.5189 30.7111 22.6916 34.571 24.4083L37.3024 25.6231C38.8674 26.3191 38.8673 28.596 37.3024 29.2921L34.4089 30.5792C30.6459 32.2528 27.63 35.3129 25.9557 39.1554L25.0163 41.3097C24.3289 42.8873 22.1471 42.8873 21.4597 41.3097L20.5202 39.1554C18.8459 35.3129 15.8301 32.2528 12.0671 30.5792L9.17352 29.2921C7.60883 28.5961 7.60883 26.3191 9.17352 25.6231L11.905 24.4083C15.7647 22.6916 18.8346 19.519 20.4802 15.546L21.445 13.2169ZM59.5466 30.9171C57.1666 33.2974 57.1663 37.157 59.5466 39.5372C61.9268 41.9173 65.7864 41.9171 68.1667 39.5372L66.5505 37.92C65.3603 39.1102 62.353 39.1102 61.1628 37.92C59.9731 36.7296 59.9731 33.7236 61.1628 32.5333L59.5466 30.9171ZM71.0407 32.3546C70.644 31.9579 69.9999 31.9569 69.6032 32.3536L67.4489 34.5089C67.0524 34.9055 67.0525 35.5487 67.4489 35.9454C67.8456 36.3418 68.4888 36.3419 68.8854 35.9454L71.0407 33.7901C71.437 33.3936 71.4368 32.7513 71.0407 32.3546ZM66.7302 28.044C66.3334 27.6473 65.6904 27.6473 65.2936 28.044L63.1384 30.1993C62.7423 30.5959 62.7423 31.2383 63.1384 31.6349C63.535 32.0315 64.1781 32.0314 64.5749 31.6349L66.7302 29.4806C67.1269 29.0838 67.1269 28.4408 66.7302 28.044ZM22.111 22.6651C20.0687 23.4527 18.6657 25.0468 18.6657 26.8243C18.6657 27.8348 18.9813 28.4583 19.57 29.0138C19.9406 29.3634 20.5271 29.6124 21.1403 29.6124C22.2447 29.6124 23.1401 28.8167 23.1403 27.8351C23.1403 26.8999 22.3276 26.1476 21.2966 26.0626C20.9028 26.0301 20.5009 26.0797 20.194 26.2208C20.3429 25.4711 20.7159 24.282 22.6218 23.3653L22.111 22.6651ZM27.8259 22.6651C25.7835 23.4527 24.3796 25.0468 24.3796 26.8243C24.3796 27.8348 24.6962 28.4583 25.2848 29.0138C25.6554 29.3632 26.2413 29.6123 26.8542 29.6124C27.9587 29.6124 28.854 28.8168 28.8542 27.8351C28.8542 26.8999 28.0415 26.1476 27.0104 26.0626C26.6169 26.0302 26.2156 26.0799 25.9089 26.2208C26.0578 25.4711 26.4298 24.2819 28.3356 23.3653L27.8259 22.6651Z" fill="#FFF8F6"></path>
</svg></svg></g></g></svg></g></svg>